<?xml version="1.0" encoding="utf-8"?>
<!-- Generator: Adobe Illustrator 21.0.2, SVG Export Plug-In . SVG Version: 6.00 Build 0)  -->
<svg version="1.1" id="Layer_1" xmlns="http://www.w3.org/2000/svg" xmlns:xlink="http://www.w3.org/1999/xlink" x="0px" y="0px"
	 viewBox="0 0 837.8 472.1" style="enable-background:new 0 0 837.8 472.1;" xml:space="preserve">
<style type="text/css">
	.st0{fill:#FFFFFF;}
	.st1{fill:#FF6600;}
	.st2{stroke:#3399FF;stroke-width:50;stroke-miterlimit:10;}
</style>
<circle class="st0" cx="650.9" cy="192" r="171.6"/>
<circle class="st0" cx="189.4" cy="190" r="171.6"/>
<path class="st1" d="M502.2,223.5H478v-86.8H353.7v86.8h-18.1c-4.8,20.9-14,40.2-26.6,56.7l21.3,36.9l89.5,155l88.8-153.9l21.2-36.8
	C516.7,264.6,507.2,245,502.2,223.5z"/>
<path d="M648.1,0c-80.6,0-149.5,50.3-177,121.2c-17.7-5.5-36.5-8.4-56-8.4c-17,0-33.5,2.2-49.2,6.4C337.9,49.4,269.6,0,189.7,0
	C84.9,0,0,84.9,0,189.7c0,104.8,84.9,189.7,189.7,189.7c17,0,33.5-2.2,49.2-6.4c13.1-3.5,25.6-8.4,37.3-14.4
	c20.5-10.5,38.8-24.6,54-41.5c23.4-25.8,39.8-57.9,46.2-93.6c2-11,3-22.3,3-33.8c0-10.9-0.9-21.5-2.7-31.9c12.2-3.2,25.1-5,38.3-5
	c15.9,0,31.3,2.5,45.7,7.1c-1.5,9.7-2.3,19.7-2.3,29.8c0,11.5,1,22.8,3,33.8c6.5,36.2,23.3,68.8,47.1,94.7
	c13.5,14.6,29.2,27.1,46.7,37c11.6,6.5,23.9,11.8,36.8,15.8c17.7,5.5,36.5,8.4,56.1,8.4c104.8,0,189.7-84.9,189.7-189.7
	C837.8,84.9,752.9,0,648.1,0z M309,280.2c-11.6,15.3-26.2,28.3-42.8,38.2v0c-22.4,13.3-48.5,21-76.5,21C107,339.4,40,272.4,40,189.7
	S107,40,189.7,40s149.7,67,149.7,149.7c0,11.6-1.3,22.9-3.8,33.8C330.8,244.4,321.5,263.7,309,280.2z M648.1,339.4
	c-31,0-59.9-9.4-83.8-25.6v0c-13.2-8.9-24.8-19.8-34.6-32.4c-13.1-16.8-22.6-36.5-27.6-57.9c-2.5-10.9-3.8-22.2-3.8-33.8
	c0-82.7,67-149.7,149.7-149.7s149.7,67,149.7,149.7S730.8,339.4,648.1,339.4z"/>
<circle class="st2" cx="189.7" cy="189.7" r="64.1"/>
<circle class="st2" cx="648.7" cy="189.7" r="64.1"/>
</svg>
