<?xml version="1.0" standalone="no"?>
<!DOCTYPE svg PUBLIC "-//W3C//DTD SVG 20010904//EN"
 "http://www.w3.org/TR/2001/REC-SVG-20010904/DTD/svg10.dtd">
<svg version="1.0" xmlns="http://www.w3.org/2000/svg"
 width="1676.000000pt" height="1676.000000pt" viewBox="0 0 1676.000000 1676.000000"
 preserveAspectRatio="xMidYMid meet">
<metadata>
Created by potrace 1.11, written by Peter Selinger 2001-2013
</metadata>
<g transform="translate(0.000000,1676.000000) scale(0.100000,-0.100000)"
fill="#000000" stroke="none">
<path d="M3545 13093 c-266 -23 -483 -57 -680 -108 -891 -228 -1650 -754
-2183 -1510 -319 -453 -544 -1007 -632 -1553 -80 -501 -60 -1054 56 -1514 210
-837 664 -1548 1329 -2080 606 -485 1385 -779 2165 -817 676 -32 1301 99 1900
399 375 188 700 426 1002 734 59 60 109 108 111 105 3 -2 66 -112 142 -244
158 -275 548 -951 635 -1100 32 -55 169 -293 306 -530 136 -236 273 -473 303
-526 31 -53 133 -229 226 -392 94 -162 173 -292 177 -289 3 4 66 111 139 237
168 293 374 651 449 780 32 55 142 246 245 425 103 179 213 370 245 425 32 55
167 289 300 520 133 231 265 461 295 510 29 50 60 105 69 123 20 38 38 41 59
8 23 -35 274 -266 388 -356 639 -509 1380 -790 2190 -830 668 -33 1334 113
1934 423 900 467 1586 1291 1879 2260 108 357 154 646 163 1032 14 624 -116
1208 -393 1765 -185 370 -394 665 -674 954 -861 885 -2055 1291 -3285 1115
-385 -55 -746 -169 -1120 -354 -403 -200 -678 -397 -1000 -720 -231 -230 -393
-433 -551 -688 -71 -114 -230 -424 -275 -534 -18 -46 -38 -83 -45 -83 -7 0
-40 9 -75 20 -546 168 -1295 185 -1902 43 -60 -14 -113 -21 -117 -17 -4 5 -22
43 -40 84 -44 106 -186 378 -254 487 -157 253 -319 456 -551 688 -316 317
-592 516 -985 713 -453 228 -901 352 -1414 392 -119 9 -438 11 -531 3z m615
-818 c815 -110 1508 -504 2002 -1140 498 -641 713 -1467 592 -2280 -51 -344
-181 -721 -355 -1028 -308 -543 -793 -989 -1355 -1245 -279 -127 -546 -204
-864 -249 -155 -22 -593 -25 -740 -5 -684 94 -1252 366 -1728 826 -502 486
-805 1106 -894 1826 -16 134 -16 526 0 650 64 472 189 843 409 1210 402 672
1065 1169 1815 1361 183 47 320 69 573 93 84 8 435 -4 545 -19z m9166 1 c347
-45 662 -140 967 -293 584 -291 1041 -744 1336 -1323 169 -331 269 -667 312
-1050 17 -153 15 -499 -5 -655 -125 -986 -677 -1804 -1541 -2283 -315 -174
-672 -288 -1075 -344 -127 -17 -563 -17 -700 0 -495 63 -910 216 -1318 486
-447 296 -803 709 -1043 1210 -97 205 -192 488 -233 701 -41 214 -50 317 -50
580 0 277 10 378 60 620 117 562 394 1073 804 1486 509 512 1156 814 1885 879
136 12 454 4 601 -14z"/>
<path d="M3556 11064 c-55 -7 -143 -24 -195 -38 -641 -169 -1120 -647 -1285
-1281 -61 -233 -73 -484 -36 -710 40 -246 122 -471 243 -664 104 -167 282
-366 424 -474 181 -138 427 -260 633 -312 346 -89 742 -70 1065 50 976 361
1435 1467 1002 2410 -255 555 -778 941 -1383 1020 -138 18 -333 18 -468 -1z"/>
<path d="M12810 11074 c-14 -2 -59 -9 -100 -15 -177 -25 -378 -91 -548 -179
-450 -233 -780 -648 -901 -1130 -72 -284 -78 -530 -21 -813 107 -526 464 -986
955 -1229 372 -185 815 -228 1235 -122 545 137 1015 563 1210 1096 79 216 110
391 110 620 0 382 -106 715 -327 1030 -278 397 -731 669 -1216 733 -105 13
-330 18 -397 9z"/>
</g>
</svg>
